<svg width="40" height="40" viewBox="0 0 40 40" fill="none" xmlns="http://www.w3.org/2000/svg">
  <circle cx="20" cy="20" r="20" fill="#E4E7ED"/>
  <path d="M20 10C16.6863 10 14 12.6863 14 16C14 17.5304 14.5817 18.9043 15.5355 20H24.4645C25.4183 18.9043 26 17.5304 26 16C26 12.6863 23.3137 10 20 10Z" fill="#909399"/>
  <path d="M30 26C30 27.1046 29.1046 28 28 28H12C10.8954 28 10 27.1046 10 26V24C10 23.4696 10.2107 22.9609 10.5858 22.5858C10.9609 22.2107 11.4696 22 12 22H28C28.5304 22 29.0391 22.2107 29.4142 22.5858C29.7893 22.9609 30 23.4696 30 24V26Z" fill="#909399"/>
</svg>